# AST/ASF file generated using VICON BodyLanguage
# -----------------------------------------------
:version 1.10
:name VICON
:units
  mass 1.0
  length 0.45
  angle deg
:documentation
   .ast/.asf automatically generated from VICON data using
   VICON BodyBuilder and BodyLanguage model FoxedUp or BRILLIANT.MOD
:root
   order TX TY TZ RX RY RZ
   axis XYZ
   position 0 0 0  
   orientation 0 0 0 
:bonedata
  begin
     id 1 
     name lhipjoint
     direction 0.682418 -0.694059 0.22932 
     length 2.25561 
     axis 0 0 0  XYZ
  end
  begin
     id 2 
     name lfemur
     direction 0.34202 -0.939693 0  
     length 6.96448  
     axis 0 0 20  XYZ
    dof rx ry rz
    limits (-160.0 20.0)
           (-70.0 70.0)
           (-60.0 70.0)
  end
  begin
     id 3 
     name ltibia
     direction 0.34202 -0.939693 0   
     length 6.88553   
     axis 0 0 20   XYZ
    dof rx
    limits (-10.0 170.0)
  end
  begin
     id 4 
     name lfoot
     direction 0.0723587 -0.198804 0.977364   
     length 1.88518   
     axis -90 7.62852e-016 20   XYZ
    dof rx rz
    limits (-45.0 90.0)
           (-70.0 20.0)
  end
  begin
     id 5 
     name ltoes
     direction 1.53558e-011 -4.21962e-011 1   
     length 0.952124   
     axis -90 7.62852e-016 20   XYZ
    dof rx
    limits (-90.0 20.0)
  end
  begin
     id 6 
     name rhipjoint
     direction -0.657603 -0.71533 0.236348   
     length 2.18854  
     axis 0 0 0  XYZ 
  end
  begin
     id 7 
     name rfemur
     direction -0.34202 -0.939693 0   
     length 6.86686   
     axis 0 0 -20   XYZ
    dof rx ry rz
    limits (-160.0 20.0)
           (-70.0 70.0)
           (-70.0 60.0)
  end
  begin
     id 8 
     name rtibia
     direction -0.34202 -0.939693 0   
     length 6.59503   
     axis 0 0 -20   XYZ
    dof rx
    limits (-10.0 170.0)
 end
 begin
     id 9 
     name rfoot
     direction -0.101977 -0.280179 0.954516   
     length 1.93723  
     axis -90 -7.62852e-016 -20   XYZ
    dof rx rz
    limits (-45.0 90.0)
           (-20.0 70.0)
  end
  begin
     id 10 
     name rtoes
     direction -1.53564e-011 -4.21897e-011 1   
     length 0.970315   
     axis -90 -7.62852e-016 -20   XYZ
    dof rx
    limits (-90.0 20.0)
  end
  begin
     id 11 
     name lowerback
     direction -0.0339559 0.999421 -0.00235966   
     length 1.88543   
     axis 0 0 0   XYZ
    dof rx ry rz
    limits (-20.0 45.0)
           (-30.0 30.0)
           (-30.0 30.0)
  end
  begin
     id 12 
     name upperback
     direction 0.00401003 0.999739 0.0224689   
     length 1.8856   
     axis 0 0 0   XYZ
    dof rx ry rz
    limits (-20.0 45.0)
           (-30.0 30.0)
           (-30.0 30.0)
  end
  begin
     id 13 
     name thorax
     direction 0.0198619 0.999546 0.0226536   
     length 1.88352   
     axis 0 0 0   XYZ
    dof rx ry rz
    limits (-20.0 45.0)
           (-30.0 30.0)
           (-30.0 30.0)
  end
  begin
     id 14 
     name lowerneck
     direction -0.0461848 0.998632 0.0245198   
     length 1.34895   
     axis 0 0 0   XYZ
    dof rx ry rz
    limits (-20.0 45.0)
           (-30.0 30.0)
           (-30.0 30.0)
  end
  begin
     id 15 
     name upperneck
     direction -0.0180627 0.994724 -0.100984   
     length 1.35214   
     axis 0 0 0   XYZ
    dof rx ry rz
    limits (-20.0 45.0)
           (-30.0 30.0)
           (-30.0 30.0)
  end
  begin
     id 16
     name head
     direction -0.00374772 0.999293 -0.037403  
     length 1.3568  
     axis 0 0 0   XYZ
    dof rx ry rz
    limits (-20.0 45.0)
           (-30.0 30.0)
           (-30.0 30.0)
  end
  begin
     id 17 
     name lclavicle
     direction 0.971773 0.191119 0.138311  
     length 2.84954  
     axis 0 0 0   XYZ
    dof ry rz
    limits (-20.0 10.0)
           (0.0 20.0)
  end
  begin
     id 18 
     name lhumerus
     direction 1 -4.4897e-011 -2.43761e-027   
     length 4.40919   
     axis 180 -30 -90   XYZ
    dof rx ry rz
    limits (-60.0 90.0)
           (-90.0 90.0)
           (-90.0 90.0)
  end
  begin
     id 19
     name lradius
     direction 1 -4.4896e-011 -9.1621e-027   
     length 3.03857   
     axis 180 -30 -90   XYZ
    dof rx
    limits (-10.0 170.0)
  end
  begin
     id 20
     name lwrist
     direction 1 -4.4896e-011 -1.41363e-026   
     length 1.51928   
     axis 1.07133e-014 90 90   XYZ
    dof ry
    limits (-180.0 0.0)
 end
  begin
     id 21 
     name lhand
     direction 1 -4.48978e-011 -2.82725e-026   
     length 0.523208   
     axis 1.80403e-014 90 90   XYZ
    dof rx rz
    limits (-90.0 90.0)
           (-45.0 45.0)
  end
  begin
     id 22 
     name lfingers
     direction 1 -4.48977e-011 -5.6545e-026   
     length 0.421824   
     axis 3.60806e-014 90 90   XYZ
    dof rx
    limits (0.0 90.0)
  end
  begin
     id 23
     name lthumb
     direction 0.707107 -6.34962e-011 0.707107   
     length 0.605657   
     axis -90 45 2.85299e-015   XYZ
    dof rx rz
    limits (-45.0 45.0)
           (-45.0 45.0)
  end
  begin
     id 24 
     name rclavicle
     direction -0.957247 0.24311 0.156766   
     length 3.12406  
     axis 0 0 0   XYZ 
    dof ry rz
    limits (-10.0 20.0)
           (-20.0 0.0)
  end
  begin
     id 25 
     name rhumerus
     direction -1 -4.48964e-011 -1.70632e-027  
     length 4.61969   
     axis 180 30 90   XYZ
    dof rx ry rz
    limits (-90.0 60.0)
           (-90.0 90.0)
           (-90.0 90.0)
  end
  begin
     id 26 
     name rradius
     direction -1 -4.48966e-011 -6.60395e-027   
     length 3.09382   
     axis 180 30 90   XYZ
    dof rx
    limits (-10.0 170.0)
  end
  begin
     id 27 
     name rwrist
     direction -1 -4.48963e-011 -1.41363e-026   
     length 1.54691   
     axis 1.07133e-014 -90 -90   XYZ
    dof ry
    limits (-180.0 0.0)
  end
  begin
     id 28
     name rhand
     direction -1 -4.49013e-011 -2.82725e-026   
     length 0.500896   
     axis 1.80403e-014 -90 -90   XYZ
    dof rx rz
    limits (-90.0 90.0)
           (-45.0 45.0)
  end
  begin
     id 29
     name rfingers
     direction -1 -4.48902e-011 -5.6545e-026   
     length 0.403835   
     axis 3.60806e-014 -90 -90   XYZ
    dof rx
    limits (0.0 90.0)
  end
  begin
     id 30
     name rthumb
     direction -0.707107 -6.34953e-011 0.707107   
     length 0.579829   
     axis -90 -45 -2.85299e-015   XYZ
    dof rx rz
    limits (-45.0 45.0)
           (-45.0 45.0)
  end
:hierarchy
  begin
    root lhipjoint rhipjoint lowerback
    lhipjoint lfemur
    lfemur ltibia
    ltibia lfoot
    lfoot ltoes
    rhipjoint rfemur
    rfemur rtibia
    rtibia rfoot
    rfoot rtoes
    lowerback upperback
    upperback thorax
    thorax lowerneck lclavicle rclavicle
    lowerneck upperneck
    upperneck head
    lclavicle lhumerus
    lhumerus lradius
    lradius lwrist
    lwrist lhand lthumb
    lhand lfingers
    rclavicle rhumerus
    rhumerus rradius
    rradius rwrist
    rwrist rhand rthumb
    rhand rfingers
  end

#!OML:ASF E:\madness\Project 1\Capture day 1\Session 1\Female1.ASF
:FULLY-SPECIFIED
:DEGREES
946
root 29.6442 15.2502 -3.52694 -314.088 -76.6251 328.461
lowerback 2.69323 5.33447 -7.87735
upperback 2.82872 6.92691 0.697806
thorax 0.417891 3.33733 4.88418
lowerneck 5.46415 -7.39925 -5.04887
upperneck 1.90763 -10.3729 13.2399
head 0.631367 -5.33766 4.81354
rclavicle -7.33515e-014 6.36111e-015
rhumerus -44.3517 17.4273 -60.2495
rradius 101.292
rwrist -14.8881
rhand -20.7211 -34.4142
rfingers 7.12502
rthumb 5.64359 -64.319
lclavicle -7.33515e-014 6.36111e-015
lhumerus -50.6697 -17.4393 38.641
lradius 114.761
lwrist -17.6882
lhand -56.9193 -0.262533
lfingers 7.12502
lthumb -29.2144 27.4641
rfemur -14.42 -5.49871 30.5164
rtibia 32.9068
rfoot -36.2225 -22.4346
rtoes 21.5153
lfemur -49.2981 -20.8121 16.247
ltibia 24.627
lfoot -12.8787 7.38085
ltoes -19.8221
947
root 29.6695 15.2613 -3.53287 -315.664 -76.3687 329.602
lowerback 2.81947 5.17514 -7.82536
upperback 2.70442 6.70354 0.808755
thorax 0.242271 3.23842 4.96406
lowerneck 5.88788 -7.25208 -5.04249
upperneck 1.93902 -10.1711 12.7949
head 0.530081 -5.24571 4.70181
rclavicle -5.36719e-014 -7.95139e-016
rhumerus -44.1047 18.0094 -60.7873
rradius 101.796
rwrist -14.9811
rhand -20.6054 -34.2999
rfingers 7.12502
rthumb 5.75533 -64.2017
lclavicle -5.36719e-014 -7.95139e-016
lhumerus -50.8274 -17.9455 39.1021
lradius 114.654
lwrist -17.4831
lhand -56.737 -1.08196
lfingers 7.12502
lthumb -29.0403 26.6749
rfemur -13.9433 -5.76885 30.4868
rtibia 32.7582
rfoot -36.1561 -22.8841
rtoes 20.4674
lfemur -48.8172 -21.4953 16.2694
ltibia 23.8976
lfoot -11.9179 8.00254
ltoes -21.7142
948
root 29.7055 15.2717 -3.53588 -315.786 -76.5302 329.408
lowerback 2.84294 5.10371 -7.82387
upperback 2.73517 6.60805 0.946869
thorax 0.258876 3.18898 5.11142
lowerneck 5.39161 -7.13078 -5.20739
upperneck 2.21702 -10.0144 12.2258
head 0.65884 -5.13794 4.53077
rclavicle 1.76918e-014 7.15625e-015
rhumerus -43.3003 18.6264 -61.0465
rradius 102.265
rwrist -15.223
rhand -20.6877 -34.2264
rfingers 7.12502
rthumb 5.67589 -64.1304
lclavicle 1.76918e-014 7.15625e-015
lhumerus -50.8212 -17.9016 39.5634
lradius 114.443
lwrist -17.3499
lhand -56.3607 -1.38783
lfingers 7.12502
lthumb -28.6809 26.4304
rfemur -13.7514 -5.75139 30.3655
rtibia 32.728
rfoot -35.9104 -23.087
rtoes 19.75
lfemur -48.1819 -21.953 16.3405
ltibia 23.077
lfoot -13.0736 7.79872
ltoes -16.9995
949
root 29.7454 15.2852 -3.54302 -315.897 -76.7081 329.416
lowerback 2.71541 5.0293 -7.78807
upperback 2.63116 6.5207 0.983356
thorax 0.234083 3.1514 5.14101
lowerneck 5.21495 -6.92417 -5.06735
upperneck 2.29313 -9.6975 11.1435
head 0.70478 -4.971 4.62484
rclavicle -5.60573e-014 -3.33958e-014
rhumerus -42.7184 19.1205 -61.4019
rradius 102.738
rwrist -15.461
rhand -20.4439 -34.5501
rfingers 7.12502
rthumb 5.91122 -64.4476
lclavicle -5.60573e-014 -3.33958e-014
lhumerus -50.7086 -18.0733 39.8184
lradius 114.344
lwrist -16.9395
lhand -55.8873 -1.11907
lfingers 7.12502
lthumb -28.2285 26.7747
rfemur -13.8279 -5.71192 30.2317
rtibia 32.738
rfoot -35.6504 -23.3135
rtoes 18.9587
lfemur -47.7859 -22.336 16.504
ltibia 22.2309
lfoot -11.5909 8.90176
ltoes -21.4363
950
root 29.7897 15.2922 -3.55414 -316.9 -76.7274 330.236
lowerback 2.91171 4.90101 -7.76323
upperback 2.50505 6.3309 0.983195
thorax 0.0236407 3.06983 5.11367
lowerneck 4.82638 -6.62916 -4.79229
upperneck 2.48933 -9.27502 10.4846
head 0.746397 -4.73805 4.32058
rclavicle -3.10104e-014 8.74653e-015
rhumerus -42.1729 19.6106 -61.8733
rradius 103.229
rwrist -15.4035
rhand -19.8714 -35.5878
rfingers 7.12502
rthumb 6.46399 -65.4691
lclavicle -3.10104e-014 8.74653e-015
lhumerus -50.5416 -18.2239 39.9794
lradius 114.185
lwrist -16.4544
lhand -55.5232 -0.99594
lfingers 7.12502
lthumb -27.8805 26.9549
rfemur -13.8271 -5.6874 30.1014
rtibia 32.7788
rfoot -35.5425 -23.7561
rtoes 17.9219
lfemur -47.4419 -22.7514 16.5608
ltibia 21.3595
lfoot -11.1123 9.1824
ltoes -22.1417
951
root 29.8286 15.2963 -3.56189 -317.756 -76.7614 330.841
lowerback 3.15103 4.71849 -7.70901
upperback 2.39597 6.06684 1.04699
thorax -0.186433 2.95056 5.13973
lowerneck 4.06916 -6.31012 -4.69422
upperneck 2.98385 -8.84004 9.74302
head 0.957581 -4.48743 4.00446
rclavicle 2.127e-014 7.15625e-015
rhumerus -41.5042 20.4012 -62.3055
rradius 103.641
rwrist -15.2792
rhand -19.3782 -36.4164
rfingers 7.12502
rthumb 6.94012 -66.2827
lclavicle 2.127e-014 7.15625e-015
lhumerus -50.808 -18.2848 40.3225
lradius 114.144
lwrist -16.2432
lhand -55.5628 -0.0501512
lfingers 7.12502
lthumb -27.9183 27.8945
rfemur -13.6965 -5.68886 29.9832
rtibia 32.7539
rfoot -35.3585 -24.2842
rtoes 16.3358
lfemur -46.9613 -23.1848 16.5877
ltibia 20.4771
lfoot -11.2922 9.18321
ltoes -21.0087
952
root 29.8555 15.3046 -3.5715 -318.062 -76.8023 330.921
lowerback 3.16614 4.8332 -7.43274
upperback 2.06021 6.21874 0.88302
thorax -0.519931 3.05352 4.78809
lowerneck 4.38587 -6.22664 -3.73027
upperneck 3.07568 -8.675 8.82755
head 0.822128 -4.39973 3.51949
rclavicle 2.80286e-014 -7.95139e-016
rhumerus -42.0722 20.468 -63.1859
rradius 103.961
rwrist -15.1039
rhand -19.2664 -36.2005
rfingers 7.12502
rthumb 7.04801 -66.0632
lclavicle 2.80286e-014 -7.95139e-016
lhumerus -50.4989 -19.517 40.4095
lradius 114.091
lwrist -16.2191
lhand -55.9391 1.73954
lfingers 7.12502
lthumb -28.2781 29.6252
rfemur -13.5412 -5.57949 29.9779
rtibia 32.6422
rfoot -35.1449 -24.8359
rtoes 14.8881
lfemur -46.4754 -23.5814 16.7376
ltibia 19.6917
lfoot -11.3666 9.4178
ltoes -20.3135
953
root 29.8838 15.3207 -3.57756 -318.462 -76.7724 331.038
lowerback 3.14405 4.73024 -7.20276
upperback 2.11011 6.09104 0.909475
thorax -0.41829 2.98584 4.7021
lowerneck 4.1043 -5.90548 -3.51358
upperneck 3.09984 -8.21851 8.36466
head 0.81329 -4.16134 3.31403
rclavicle 2.80286e-014 -9.54166e-015
rhumerus -41.588 21.0698 -63.6376
rradius 104.034
rwrist -14.8916
rhand -19.6497 -35.6203
rfingers 7.12502
rthumb 6.67804 -65.495
lclavicle 2.80286e-014 -9.54166e-015
lhumerus -50.3249 -19.6629 40.611
lradius 113.962
lwrist -16.1567
lhand -56.4569 2.28067
lfingers 7.12502
lthumb -28.7728 30.0833
rfemur -13.2688 -5.65545 29.9579
rtibia 32.4627
rfoot -34.8739 -25.2435
rtoes 13.5302
lfemur -45.9951 -23.9858 16.8091
ltibia 19.0552
lfoot -11.1923 9.70216
ltoes -20.1388
954
root 29.9127 15.3359 -3.58232 -319.317 -76.7746 331.603
lowerback 3.16061 4.70476 -6.99675
upperback 2.00759 6.0593 0.840728
thorax -0.501865 2.97772 4.51292
lowerneck 4.17347 -5.57607 -3.10879
upperneck 3.03532 -7.74486 7.88074
head 0.708933 -3.92266 3.08274
rclavicle 3.61788e-014 7.15625e-015
rhumerus -41.674 21.6256 -64.2467
rradius 104.251
rwrist -14.5703
rhand -19.7268 -35.4904
rfingers 7.12502
rthumb 6.60359 -65.3675
lclavicle 3.61788e-014 7.15625e-015
lhumerus -50.0621 -20.1143 40.6877
lradius 113.577
lwrist -16.2743
lhand -56.7064 0.181473
lfingers 7.12502
lthumb -29.0111 27.9433
rfemur -12.9369 -5.81946 29.8153
rtibia 32.238
rfoot -34.5159 -25.6226
rtoes 12.0665
lfemur -45.5515 -24.4301 16.7439
ltibia 18.4917
lfoot -11.0889 10.0365
ltoes -19.766
